<svg width="25" height="24" viewBox="0 0 25 24" fill="none" xmlns="http://www.w3.org/2000/svg">
<path d="M12.4417 6V2H8.29449" stroke="#2563EB" stroke-width="2" stroke-linecap="round" stroke-linejoin="round"/>
<path d="M8.29446 18L4.14722 22V8C4.14722 7.46957 4.36569 6.96086 4.75457 6.58579C5.14344 6.21071 5.67088 6 6.22084 6H18.6626C19.2125 6 19.7399 6.21071 20.1288 6.58579C20.5177 6.96086 20.7362 7.46957 20.7362 8V16C20.7362 16.5304 20.5177 17.0391 20.1288 17.4142C19.7399 17.7893 19.2125 18 18.6626 18H8.29446Z" stroke="#2563EB" stroke-width="2" stroke-linecap="round" stroke-linejoin="round"/>
<path d="M2.07361 12H4.14723" stroke="#2563EB" stroke-width="2" stroke-linecap="round" stroke-linejoin="round"/>
<path d="M9.3313 11V13" stroke="#2563EB" stroke-width="2" stroke-linecap="round" stroke-linejoin="round"/>
<path d="M15.5521 11V13" stroke="#2563EB" stroke-width="2" stroke-linecap="round" stroke-linejoin="round"/>
<path d="M20.7362 12H22.8098" stroke="#2563EB" stroke-width="2" stroke-linecap="round" stroke-linejoin="round"/>
</svg>
