<svg width="29" height="29" viewBox="0 0 29 29" fill="none" xmlns="http://www.w3.org/2000/svg">
<path d="M18.125 25.3749V15.7082C18.125 15.3877 17.9977 15.0804 17.771 14.8538C17.5444 14.6272 17.2371 14.4999 16.9166 14.4999H12.0833C11.7628 14.4999 11.4555 14.6272 11.2289 14.8538C11.0023 15.0804 10.875 15.3877 10.875 15.7082V25.3749" stroke="#3B76F6" stroke-width="2" stroke-linecap="round" stroke-linejoin="round"/>
<path d="M3.62497 12.0834C3.62488 11.7319 3.7015 11.3845 3.84946 11.0657C3.99743 10.7468 4.21318 10.464 4.48168 10.2371L12.94 2.9883C13.3762 2.61965 13.9288 2.41739 14.5 2.41739C15.0711 2.41739 15.6237 2.61965 16.0599 2.9883L24.5182 10.2371C24.7867 10.464 25.0025 10.7468 25.1505 11.0657C25.2984 11.3845 25.375 11.7319 25.3749 12.0834V22.9584C25.3749 23.5993 25.1203 24.214 24.6671 24.6672C24.2139 25.1205 23.5992 25.3751 22.9583 25.3751H6.04163C5.40069 25.3751 4.78601 25.1205 4.33279 24.6672C3.87958 24.214 3.62497 23.5993 3.62497 22.9584V12.0834Z" stroke="#3B76F6" stroke-width="2" stroke-linecap="round" stroke-linejoin="round"/>
</svg>
