<svg width="25" height="24" viewBox="0 0 25 24" fill="none" xmlns="http://www.w3.org/2000/svg">
<path d="M12.168 7.29175V21.8751" stroke="#2563EB" stroke-width="2" stroke-linecap="round" stroke-linejoin="round"/>
<path d="M2.79295 18.75C2.51668 18.75 2.25173 18.6403 2.05638 18.4449C1.86103 18.2496 1.75128 17.9846 1.75128 17.7083V4.16667C1.75128 3.8904 1.86103 3.62545 2.05638 3.4301C2.25173 3.23475 2.51668 3.125 2.79295 3.125H8.00128C9.10635 3.125 10.1662 3.56399 10.9476 4.34539C11.729 5.12679 12.1679 6.1866 12.1679 7.29167C12.1679 6.1866 12.6069 5.12679 13.3883 4.34539C14.1697 3.56399 15.2295 3.125 16.3346 3.125H21.5429C21.8192 3.125 22.0842 3.23475 22.2795 3.4301C22.4749 3.62545 22.5846 3.8904 22.5846 4.16667V17.7083C22.5846 17.9846 22.4749 18.2496 22.2795 18.4449C22.0842 18.6403 21.8192 18.75 21.5429 18.75H15.2929C14.4641 18.75 13.6693 19.0792 13.0832 19.6653C12.4972 20.2513 12.1679 21.0462 12.1679 21.875C12.1679 21.0462 11.8387 20.2513 11.2527 19.6653C10.6666 19.0792 9.87175 18.75 9.04295 18.75H2.79295Z" stroke="#2563EB" stroke-width="2" stroke-linecap="round" stroke-linejoin="round"/>
</svg>
