<svg width="37" height="40" viewBox="0 0 37 40" fill="none" xmlns="http://www.w3.org/2000/svg">
<g clip-path="url(#clip0_1597_152)">
<path d="M22.8466 13.8511C23.7459 13.8562 24.5073 14.6208 24.4988 15.5115C24.4886 16.409 23.7187 17.1651 22.8261 17.1566C21.9131 17.1464 21.1909 16.4073 21.196 15.4877C21.2011 14.5578 21.9182 13.8477 22.8466 13.8528V13.8511Z" fill="#1A6EFF"/>
<path d="M15.1304 15.5217C15.1236 16.4413 14.3826 17.1651 13.4577 17.1549C12.5736 17.1463 11.8633 16.4124 11.8633 15.5098C11.8633 14.5851 12.5975 13.8426 13.502 13.8528C14.4252 13.863 15.1372 14.5936 15.1304 15.5217Z" fill="#1A6EFF"/>
<path d="M35.8448 31.1227C35.7051 31.104 35.5535 30.9149 35.4717 30.7685C35.0783 30.0788 34.7052 29.3771 34.3322 28.6772C34.0835 28.2123 33.8365 27.7474 33.5895 27.2825C33.1875 26.5264 32.7873 25.7685 32.3836 25.0073C32.4841 24.946 32.5437 24.9051 32.6084 24.8728C32.9763 24.6923 33.1211 24.3994 33.0172 24.0077C32.915 23.6245 32.6101 23.5836 32.2711 23.5938C31.847 23.6058 31.4212 23.5972 30.9953 23.5972H28.241C28.3398 23.4065 28.3483 23.3656 28.3721 23.3469C28.5203 23.2362 28.6736 23.134 28.8235 23.0268C30.0789 22.1276 30.9919 20.961 31.462 19.4914C31.6188 19.0026 31.8232 18.8187 32.3461 18.8306C33.2318 18.8494 33.7565 18.3351 33.8008 17.487C33.8042 17.4546 33.8059 17.4223 33.8059 17.3882C33.8178 16.317 33.8212 15.2442 33.8059 14.173C33.8042 14.0112 33.7837 13.8579 33.7497 13.7183C33.5912 13.095 33.1177 12.7135 32.4074 12.7237C32.3733 12.7237 32.3393 12.7237 32.3069 12.722C31.8112 12.7033 31.6733 12.4683 31.5796 11.9761C31.3121 10.5712 30.532 9.3212 29.4606 8.41011C28.3296 7.44282 26.8766 6.85189 25.3691 6.85019C23.7424 6.84848 22.1157 6.8587 20.489 6.84508C19.9627 6.84167 19.2643 6.96939 18.9594 6.69181C18.692 6.44828 18.8844 5.71941 18.8384 5.20681C18.7959 4.7385 18.9304 4.45069 19.3818 4.20887C20.2437 3.74907 20.6372 2.71366 20.4038 1.79235C20.2199 1.07029 19.7072 0.484463 19.0548 0.194957C18.8044 0.0842635 18.5335 0.0178474 18.2542 0.00252066C17.9186 -0.0145091 17.5797 0.0553129 17.2662 0.194957C16.7024 0.445294 16.2221 0.918722 15.9955 1.49944C15.6429 2.39861 15.8593 3.5362 16.6837 4.02665C17.3753 4.43707 17.4672 4.94626 17.4076 5.61383C17.3889 5.81478 17.3838 6.02254 17.4076 6.22349C17.4655 6.70032 17.2884 6.86722 16.791 6.8604C14.8866 6.83486 12.9823 6.84678 11.0779 6.85019C7.84325 6.8587 5.26607 8.95847 4.61368 12.1396C4.53363 12.5279 4.41439 12.6897 3.98174 12.6965C2.96994 12.7135 2.52366 13.2091 2.51515 14.2343C2.50663 15.2322 2.51004 16.2302 2.51344 17.2281C2.51685 18.381 2.92225 18.8204 4.06009 18.8357C4.44335 18.8408 4.59665 18.9754 4.71418 19.3364C5.22349 20.9151 6.16545 22.1872 7.54687 23.1238C7.67292 23.209 7.78023 23.3197 7.97612 23.4883C7.69506 23.5036 7.53154 23.5189 7.36972 23.5223C6.20633 23.5479 5.04123 23.5479 3.87954 23.616C3.65129 23.6296 3.3038 23.8697 3.25611 24.0656C3.2033 24.2801 3.41282 24.5748 3.55079 24.8115C3.60189 24.9017 3.76711 24.929 3.91871 25.0022C2.91543 26.8908 1.92749 28.7692 0.912284 30.6305C0.789642 30.8553 0.496664 30.9831 0.300778 31.1755C0.179839 31.2947 0.01802 31.4446 0.00779987 31.5893C-0.0126404 31.8959 0.00439317 32.2228 0.0912645 32.5157C0.665297 34.4537 1.95304 35.6935 3.9119 36.1363C5.87758 36.5807 7.56901 35.9864 8.89934 34.469C9.58239 33.6908 10.061 32.7933 10.0764 31.7273C10.0798 31.5382 9.89069 31.1908 9.77657 31.1857C9.34732 31.167 9.22979 30.8741 9.07308 30.5812C8.35086 29.229 7.62352 27.8802 6.903 26.5264C6.63728 26.0291 6.38177 25.525 6.06665 24.9171H6.76503C9.85152 24.9171 12.9397 24.9154 16.0262 24.9171H16.1045C16.7484 24.9188 16.7757 24.9443 16.7535 25.588C16.7535 25.6034 16.7535 25.6187 16.7535 25.6357C16.6581 28.3128 16.5508 30.9882 16.452 33.6652C16.4452 33.8134 16.4401 33.9616 16.435 34.1097C16.4043 34.9391 16.4112 34.968 15.6549 35.1588C15.6276 35.1656 15.5987 35.1741 15.568 35.1809C15.5322 35.1894 15.4982 35.2081 15.4641 35.2184C14.2377 35.5555 13.7726 36.5143 13.5427 37.6315C13.4609 38.0351 13.3059 38.1952 12.8903 38.1798C12.3929 38.1611 11.8836 38.1526 11.4016 38.2462C11.1427 38.2973 10.785 38.5323 10.7253 38.7537C10.647 39.0466 10.7219 39.4758 10.9042 39.7159C11.0524 39.9101 11.4544 39.9867 11.7457 39.9884C12.427 39.9918 13.1083 39.9935 13.7897 39.9935C16.9443 40.002 20.0989 40.0003 23.2536 39.9986H24.5004C24.6656 39.9986 24.8377 40.002 24.9961 39.9611C25.4679 39.8419 25.6263 39.4945 25.6144 39.0398C25.6025 38.6022 25.4407 38.2718 24.9586 38.2309C24.5191 38.1918 24.0695 38.1339 23.6351 38.1815C23.5533 38.19 23.4801 38.1952 23.4137 38.1918C23.1548 38.1849 22.9895 38.0947 22.8788 37.9227C22.7953 37.7984 22.7408 37.6315 22.6983 37.422C22.5075 36.4786 22.1515 35.8859 21.5263 35.5266C21.1976 35.3376 20.7922 35.2132 20.2982 35.1366C19.9286 35.0804 19.8656 34.8829 19.8536 34.5712C19.8247 33.781 19.7957 32.9926 19.7651 32.2024C19.7617 32.0644 19.7566 31.9248 19.7497 31.7869C19.7327 31.3288 19.7157 30.8707 19.6986 30.4126C19.6782 29.8642 19.6561 29.3175 19.6339 28.7692C19.593 27.7133 19.5487 26.6558 19.501 25.6C19.4789 25.0805 19.6067 24.9 20.162 24.9034C20.782 24.9085 21.4037 24.9136 22.0237 24.9154C24.5651 24.9256 27.1048 24.9154 29.6446 24.9171C29.8183 24.9188 29.9903 24.9409 30.2424 24.9579C29.8183 25.7447 29.401 26.5179 28.9888 27.2859C28.3262 28.512 27.6721 29.7194 27.0129 30.9234C26.9549 31.029 26.788 31.1227 26.662 31.1346C26.3043 31.1721 26.2464 31.4071 26.2617 31.683C26.2634 31.717 26.2651 31.7511 26.2668 31.7869C26.2821 32.027 26.306 32.2705 26.3656 32.5038C26.8391 34.3481 28.2716 35.673 30.1011 36.1056C30.6444 36.2333 31.2236 36.2827 31.8232 36.2436C32.2711 36.2146 32.7123 36.1107 33.1296 35.9455C34.7751 35.2984 36.0901 33.701 36.3234 31.8822C36.3268 31.8499 36.3302 31.8175 36.3319 31.7869C36.366 31.4463 36.3081 31.1806 35.8465 31.1227H35.8448ZM7.99996 31.1142H2.00243C3.01934 29.2154 3.99536 27.3915 5.0259 25.462C6.0428 27.3932 6.99839 29.2086 7.99996 31.1142ZM22.1208 20.4093C22.0254 20.4093 21.93 20.4093 21.8347 20.4093C20.5997 20.4161 19.3648 20.4093 18.1298 20.4093C17.4519 20.411 16.7723 20.4127 16.0943 20.4127C14.982 20.4161 13.8697 20.4161 12.7557 20.4093C10.1871 20.3905 8.17371 18.6024 7.97101 16.1791C7.73765 13.3947 9.33369 11.174 11.9296 10.6836C12.1987 10.6325 12.4798 10.6189 12.7557 10.6189C16.3566 10.6138 19.9593 10.6121 23.5602 10.6172C25.628 10.6189 27.3229 11.8178 28.0161 13.7149C28.1967 14.2036 28.3091 14.7384 28.3449 15.3123C28.3926 16.0956 28.2751 16.8313 28.0144 17.487C27.4336 18.9532 26.1407 20.0244 24.3863 20.3514C23.6538 20.4893 22.8771 20.4042 22.1208 20.4076V20.4093ZM28.2819 31.1074C28.9819 29.8148 29.6616 28.558 30.3515 27.2842C30.6751 26.6899 30.9987 26.0887 31.3292 25.4807C31.6494 26.0904 31.9628 26.6899 32.2762 27.2825C32.9474 28.5631 33.6066 29.8182 34.2828 31.1074H28.2819Z" fill="#1A6EFF"/>
</g>
<defs>
<clipPath id="clip0_1597_152">
<rect width="36.34" height="40" fill="white"/>
</clipPath>
</defs>
</svg>
